<svg width="77" height="79" viewBox="0 0 77 79" fill="none" xmlns="http://www.w3.org/2000/svg">
<path d="M3.28125 68V17.0909H25.3551C29.233 17.0909 32.4893 17.6129 35.1243 18.657C37.7758 19.701 39.7727 21.1759 41.1151 23.0817C42.474 24.9875 43.1534 27.233 43.1534 29.8182C43.1534 31.6908 42.7391 33.3977 41.9105 34.9389C41.0985 36.4801 39.955 37.7727 38.4801 38.8168C37.0052 39.8442 35.2817 40.5568 33.3097 40.9545V41.4517C35.4972 41.5346 37.4858 42.0897 39.2756 43.1172C41.0653 44.1281 42.4905 45.5284 43.5511 47.3182C44.6117 49.0914 45.142 51.1794 45.142 53.5824C45.142 56.3665 44.4129 58.844 42.9545 61.0149C41.5128 63.1858 39.4579 64.8928 36.7898 66.1357C34.1217 67.3786 30.9399 68 27.2443 68H3.28125ZM17.1023 56.9631H23.5653C25.8854 56.9631 27.6255 56.5322 28.7855 55.6705C29.9456 54.7921 30.5256 53.4995 30.5256 51.7926C30.5256 50.5994 30.2521 49.5885 29.7053 48.7599C29.1584 47.9313 28.3795 47.3016 27.3686 46.8707C26.3743 46.4399 25.1728 46.2244 23.7642 46.2244H17.1023V56.9631ZM17.1023 37.6733H22.7699C23.9796 37.6733 25.0485 37.4827 25.9766 37.1016C26.9046 36.7204 27.6255 36.1735 28.1392 35.4609C28.6695 34.7318 28.9347 33.8452 28.9347 32.8011C28.9347 31.2268 28.3712 30.0253 27.2443 29.1967C26.1174 28.3516 24.6922 27.929 22.9688 27.929H17.1023V37.6733Z" fill="#F5F3F3"/>
<circle cx="63" cy="54" r="14" fill="#F5F3F3"/>
</svg>
